<?xml version="1.0" encoding="UTF-8"?>
<svg id="Ebene_1" xmlns="http://www.w3.org/2000/svg" version="1.1" viewBox="0 0 6265.21 5856">
  <!-- Generator: Adobe Illustrator 29.6.1, SVG Export Plug-In . SVG Version: 2.1.1 Build 9)  -->
  <defs>
    <style>
      .st0 {
        fill: #3e415b;
        fill-rule: evenodd;
      }
    </style>
  </defs>
  <path class="st0" d="M5450,1582.15c205.13,143.46,398.86,277.48,603,420,52.92,36.95,103.67,70.26,152,104,25.83,18.03,44.76,40.25,54,74,8.59,31.38,5,76.81,5,122v3324c0,43.93,3.76,90.06-2,126-5.65,35.27-25.34,62.25-48,79-25.24,18.66-58.95,23-105,23-1958.18.09-3918.57-.09-5878,0-42.65,0-87.4,4.75-126-1-36.72-5.47-61.76-23.74-80-48-19.8-26.34-25-57.33-25-103v-3450c0-49.61,2.33-77.96,21-107,16.76-26.06,42.8-40.71,69-59,216.7-151.28,439.58-305.83,659-459,9.15-6.39,10.61-4.89,10-19-5.9-137.6-17.64-267.41-24-401-1.65-34.68-7.25-69.88-4-103,5.79-59.09,49.08-98.47,105-107,29.14-4.44,62.27-4.52,99-7,264.94-17.87,532.21-29.05,802-48,425.03-297.03,859.81-593.86,1288-894,30.06-21.07,59.69-45.78,101-48,37.58-2.02,66.86,16.74,92,34,274.07,188.16,542.87,377.52,817,566,84.46,58.07,172.07,121.81,259,181,6.62,4.51,11.78,8.57,20,9,8.92.47,18.98-.48,30-1,273.87-13.04,553.43-35.45,831-50,39.91-2.09,81.62-8.46,118-5,37.73,3.59,63.39,20.43,83,43,21.55,24.8,27.67,54.94,30,96,11.18,196.83,24.6,394.86,35,593,2.07,39.36,4.32,79.48,9,116ZM3013,350.15c-269.6,186.91-540.54,374.07-809,560-1.1.76-4.54,2.73-4,5,573.31-33.02,1144.69-67.98,1718-101-30.25-24.71-63.69-45.81-96-68-230.21-158.06-458.67-321.21-689-478-.06-.61-.15-1.18-1-1-40.33,26.39-78.94,55.23-119,83ZM978,1228.15v3c28.28,486.72,57.53,972.47,86,1459,539.68,361.65,1080.94,721.72,1623,1081,106.67-74.7,214.35-148.54,322-224,34.92-24.48,71.87-59.21,124-59,52.53.21,88.12,36.12,122,60,109.17,76.95,216.25,148.69,324,223,552.99-370.98,1111.94-737.98,1666-1109,10.22-6.84,25.43-15.68,25-22-18.82-274.63-30.66-551.9-49-830-13.69-207.58-22.18-416.15-37-623-4.93-68.8-5.98-137.84-14-206-1398.28,81.38-2793.69,165.65-4192,247ZM5502,2489.15c141.06-90.27,282.27-189.06,425-281-152.06-108.61-307.15-214.18-461-321,12.6,200.07,23.68,401.65,36,602ZM776,1902.15c-146.2,102.14-294.33,202.34-439,306,153.79,100.62,309.88,205.69,462,307,4.7,3.13,10.44,8.12,14,7-12.06-206.94-23.65-414.35-37-620ZM240,2435.15v3032c2.85,2.9,5.47-1.99,7-3,92.4-60.84,180.68-125.47,271-188,652.02-451.41,1305.41-905.3,1955-1358-744.62-494.71-1488.16-990.51-2232-1486-1.17.17-1.09,1.58-1,3ZM3791,3918.15c557.45,387.19,1115.58,778.74,1676,1164,139.22,95.71,278.67,192.34,419,291,41.75,29.36,85.54,62.15,131,91,7.71,4.89,4.97,6.49,7,2,2.82-6.23,0-32.71,0-47,0-996.19.83-1995.89-1-2987-743.85,495.49-1487.38,991.29-2232,1486ZM1457,4917.15c-331.55,229.53-664.63,458.56-993,690-2.17,1.53-8.35,2.53-7,7h5351c-.24-4.33-5.16-5-8-7-24.4-17.2-48.94-34.37-73-51-307.41-212.46-614.28-426.62-921-639-558.34-386.61-1115.84-776.27-1674-1162-557.23,385.78-1117.64,776.15-1675,1162ZM3471,1778.15c.81.19,1,1,2,1,24.96-19.08,48.15-37.37,75-58,6.95-5.34,20.76-19.15,28-18,40.09,6.36,86.04,13.5,129,21,.19.81,1,1,1,2-30.62,198.34-60.32,380.03-92,574-10.37,63.49-22.28,127.75-27,194-5.52,77.47,6.58,141.89,63,157,66.7,17.87,128.43-23.91,160-53,74.5-68.66,112.62-184.33,128-315,16.91-143.69-1.48-284.66-34-398-32.63-113.74-90.39-209.51-165-278-77.39-71.05-175.34-117.99-304-139-125.41-20.48-280.37-10.7-400,19-234.75,58.27-405.89,185.11-516,371-53.82,90.85-94.8,200.7-116,327-21.03,125.28-18.4,282.75,5,408,46.11,246.8,177.13,418.55,396,491,111.94,37.05,256.78,46.82,397,32,99.83-10.55,188.99-31.8,273-60,27.36-9.18,53.55-19.95,81-27,18.68,50.32,35.08,102.92,53,154-137.26,62.45-301.37,98.41-491,109-197.82,11.05-382.07-11.18-527-67-291.02-112.09-450.97-347.76-490-710-21.26-197.32,7.97-381.37,62-524,55.06-145.35,137.83-265.83,236-364,101.22-101.22,221.8-178.64,362-238,70.45-29.83,147.16-54.1,229-71,83.25-17.19,171.71-25.47,269-30,150.42-7,295.6,14.55,407,48,119.45,35.87,215.25,88.63,293,160,157.8,144.84,250.18,354.15,247,659-1.52,145.64-33.89,267.65-84,369-50,101.13-121.94,182.38-217,236-89.03,50.22-233.21,89.98-373,58-115.34-26.38-173.11-107.92-185-239-.35-3.91-.88-21.25-5-23-7.32-3.1-11.35,8.02-13,11-40.56,73.29-96.94,147.92-156,200-61.16,53.92-150.19,114.93-275,103-108.04-10.32-175.27-79.15-213-167-37.16-86.51-48.09-214.26-34-334,25.65-217.91,113.81-400.79,247-513,66.92-56.38,149.75-105.24,256-124,118.65-20.95,240.26-2.62,318,46ZM3144,1900.15c-85.73,55.91-131.13,147.5-165,254-31.85,100.13-54.96,235.82-41,370,5.18,49.78,15.3,99.96,42,125,34.62,32.47,103.97,15.36,138-5,31.69-18.96,52.81-43.11,73-68,43.18-53.24,77.64-109.6,107-175,30.23-67.34,48.28-140.5,59-223,9.54-73.45,27.36-188.5,2-254-15.85-40.94-51.63-63.61-108-60-.63.04-1.11,1.01-1,1-42.8,3.16-76.15,15.53-106,35Z"/>
</svg>